Coordinates
version=1
nRows=16
nColumns=40
inDegrees=yes

Units are S.I. units (second, meters, Newtons, ...)
Angles are in degrees.

endheader
time	pelvis_tilt	pelvis_list	pelvis_rotation	pelvis_tx	pelvis_ty	pelvis_tz	hip_flexion_r	hip_adduction_r	hip_rotation_r	knee_angle_r	knee_angle_r_beta	ankle_angle_r	subtalar_angle_r	mtp_angle_r	hip_flexion_l	hip_adduction_l	hip_rotation_l	knee_angle_l	knee_angle_l_beta	ankle_angle_l	subtalar_angle_l	mtp_angle_l	lumbar_extension	lumbar_bending	lumbar_rotation	arm_flex_r	arm_add_r	arm_rot_r	elbow_flex_r	pro_sup_r	wrist_flex_r	wrist_dev_r	arm_flex_l	arm_add_l	arm_rot_l	elbow_flex_l	pro_sup_l	wrist_flex_l	wrist_dev_l
     32.79500000	     -2.98343986	     -4.06334288	     -5.42802150	      0.76774629	      0.93045542	      0.43653859	     27.47646926	     -1.41616408	    -14.93697206	     15.12565414	     15.12565414	      1.17802950	      4.51906012	      7.84169782	      1.69820844	     -3.49665284	    -15.42417872	     13.95278655	     13.95278655	     16.72396461	     -3.34413933	     -6.25833292	    -10.07559101	      0.78559516	     -1.38228044	    -16.66854747	    -15.36529059	     -6.26605835	     26.80585082	     46.91220092	      0.00000000	      0.00000000	     17.40424151	    -17.08431500	    -12.57214369	     71.78043365	     47.40367166	      0.00000000	      0.00000000
     32.80835714	     -3.03930036	     -3.95462095	     -5.31650205	      0.76835524	      0.92913245	      0.43771564	     27.43212032	     -1.39609975	    -15.03628847	     15.09311582	     15.09311582	      1.03231961	      4.52461302	      7.91814234	      1.25736036	     -3.42267357	    -15.38196113	     13.96898248	     13.96898248	     17.07939440	     -3.37145631	     -6.39931381	     -9.79388805	      0.75578413	     -1.36272316	    -16.62055921	    -15.33879996	     -6.27602952	     26.84080886	     46.91150385	      0.00000000	      0.00000000	     17.34467889	    -17.00439972	    -12.53668295	     71.76821941	     47.40078823	      0.00000000	      0.00000000
     32.82171429	     -2.88316898	     -3.95338302	     -5.12817952	      0.76950653	      0.92847885	      0.43880677	     26.61050882	     -1.27091706	    -15.56824028	     14.48208021	     14.48208021	      0.85633961	      5.23108971	      8.17980173	      0.13881024	     -3.35437740	    -15.40219993	     13.18101737	     13.18101737	     17.37346654	     -2.61342695	     -6.54971103	     -9.79293564	      0.84334973	     -1.42221844	    -16.49528995	    -15.23841871	     -6.53113468	     27.23524644	     46.90713825	      0.00000000	      0.00000000	     16.82199416	    -16.55225287	    -12.17495817	     71.40068257	     47.37129989	      0.00000000	      0.00000000
     32.83507143	     -2.95965085	     -3.85748914	     -4.90975750	      0.77042350	      0.92707894	      0.43999481	     26.31648848	     -1.26906169	    -15.67347124	     14.61946635	     14.61946635	      0.83822538	      5.14333307	      8.14670629	     -0.31175332	     -3.30336422	    -15.21293130	     13.14819765	     13.14819765	     17.79252194	     -2.50087500	     -6.71845764	     -9.51957965	      0.85063859	     -1.38101197	    -16.28845001	    -15.09307071	     -6.55843672	     27.39382327	     46.90241059	      0.00000000	      0.00000000	     16.44875576	    -16.19300916	    -12.00843274	     71.23867493	     47.35514880	      0.00000000	      0.00000000
     32.84842857	     -2.93194094	     -3.76246437	     -4.67212842	      0.77169046	      0.92584054	      0.44122828	     25.89035226	     -1.27543301	    -15.57790627	     14.97031575	     14.97031575	      0.78253609	      4.74044909	      7.47902341	     -1.07152295	     -3.23130095	    -15.24557805	     12.78479763	     12.78479763	     18.20322080	     -1.89946051	     -6.67458865	     -9.31812731	      0.90433749	     -1.54526468	    -16.01614837	    -14.99838312	     -6.88269860	     28.11931878	     46.88507094	      0.00000000	      0.00000000	     15.89380120	    -16.03699649	    -11.64640356	     70.51259802	     47.32175934	      0.00000000	      0.00000000
     32.86178571	     -3.07602246	     -3.73485322	     -4.39521481	      0.77288365	      0.92432495	      0.44255583	     25.49763823	     -1.20078396	    -15.59009943	     15.19174326	     15.19174326	      0.91996280	      4.55926013	      7.31522014	     -1.43952741	     -3.28891913	    -14.96511876	     12.80220423	     12.80220423	     18.64761678	     -1.83175069	     -6.80855437	     -8.97699415	      1.00088781	     -1.37011124	    -15.69690631	    -14.85888980	     -6.88504066	     28.30253357	     46.87874969	      0.00000000	      0.00000000	     15.39287507	    -15.63796545	    -11.48136476	     70.30374104	     47.30360033	      0.00000000	      0.00000000
     32.87514286	     -3.11294223	     -3.71583674	     -4.08446402	      0.77429308	      0.92284882	      0.44394148	     25.03064432	     -1.01764634	    -14.90361445	     15.44359502	     15.44359502	     -0.31812209	      2.89584241	      2.73978832	     -1.82243288	     -3.43965242	    -15.01160079	     13.13644261	     13.13644261	     19.86739859	     -1.01526146	     -5.15534994	     -8.72184428	      1.25372035	     -1.17706523	    -15.91818110	    -14.71230160	     -7.57562894	     30.14160450	     46.78125407	      0.00000000	      0.00000000	     15.10553763	    -15.24009363	    -10.59084718	     68.60914728	     47.24269244	      0.00000000	      0.00000000
     32.88850000	     -3.25580687	     -3.73082579	     -3.76566437	      0.77561050	      0.92146774	      0.44533520	     24.77454529	     -0.89649689	    -14.49623516	     16.00554075	     16.00554075	     -0.06771400	      1.98047808	      2.12004528	     -2.13121638	     -3.56895682	    -14.65818495	     13.26690475	     13.26690475	     20.28993892	     -1.05785648	     -5.00044366	     -8.39619788	      1.49046147	     -1.34968738	    -15.21757431	    -14.62899619	     -7.60892991	     30.54540868	     46.75989022	      0.00000000	      0.00000000	     14.23453584	    -15.01306510	    -10.35492349	     67.78776733	     47.21176029	      0.00000000	      0.00000000
     32.90185714	     -3.35814808	     -3.81737007	     -3.44630865	      0.77692692	      0.92035238	      0.44686451	     24.38849599	     -0.62601590	    -13.87022516	     16.31808089	     16.31808089	     -0.36299545	      0.51607787	     -0.01448228	     -2.37243420	     -3.80997396	    -14.24346009	     13.65264110	     13.65264110	     21.07667714	     -1.11356178	     -3.82667935	     -8.14250381	      1.82677875	     -1.19219261	    -14.67924528	    -14.59985120	     -7.39975968	     31.09492773	     46.68371682	      0.00000000	      0.00000000	     13.67847081	    -14.53742570	    -10.09028770	     66.35051731	     47.18124501	      0.00000000	      0.00000000
     32.91521429	     -3.50032001	     -3.89823688	     -3.12880960	      0.77821305	      0.91938722	      0.44838996	     24.23401779	     -0.47454959	    -13.50271065	     17.00389435	     17.00389435	      0.09385392	     -0.39692012	     -0.69226060	     -2.52690608	     -4.06568143	    -13.85966077	     14.06008852	     14.06008852	     21.40377173	     -1.29898796	     -3.61379980	     -7.86119233	      2.15931459	     -1.37052256	    -13.77604286	    -14.57271652	     -7.36736314	     31.62385847	     46.65704728	      0.00000000	      0.00000000	     12.64008199	    -14.30483872	     -9.84795012	     65.26177245	     47.14203937	      0.00000000	      0.00000000
     32.92857143	     -3.60392164	     -4.04206954	     -2.82423523	      0.77942531	      0.91886387	      0.45005149	     23.94309462	     -0.15770105	    -12.83552295	     17.37791598	     17.37791598	      0.09753893	     -1.95262307	     -2.22481898	     -2.57723902	     -4.41239027	    -13.33917087	     14.75948793	     14.75948793	     21.99507767	     -1.66983219	     -2.44066400	     -7.65902275	      2.58625178	     -1.21268208	    -12.98331262	    -14.59753635	     -6.95795242	     32.21733704	     46.58029765	      0.00000000	      0.00000000	     12.03691209	    -13.79366767	     -9.63260686	     63.23857974	     47.09881697	      0.00000000	      0.00000000
     32.94192857	     -3.65752247	     -4.21583924	     -2.52909978	      0.78060002	      0.91867214	      0.45175791	     23.71552504	      0.07091667	    -12.61403863	     17.99597318	     17.99597318	      0.68926753	     -2.69879108	     -2.78263915	     -2.58808055	     -4.83386828	    -12.91403817	     15.58500273	     15.58500273	     22.14712264	     -2.08222375	     -2.27189849	     -7.55617503	      3.03111407	     -1.29856786	    -11.89954108	    -14.65009736	     -6.91671046	     32.79370750	     46.55537841	      0.00000000	      0.00000000	     10.92141584	    -13.50555444	     -9.38949118	     61.98385556	     47.05489953	      0.00000000	      0.00000000
     32.95528571	     -3.80207302	     -4.36960810	     -2.24447279	      0.78159683	      0.91874458	      0.45354454	     23.53112096	      0.34542743	    -12.19470212	     18.40100008	     18.40100008	      1.11406289	     -3.78602698	     -3.36598439	     -2.28277745	     -5.27136430	    -12.35287981	     16.77616978	     16.77616978	     22.26048359	     -2.74602885	     -1.85477146	     -7.35794480	      3.47761649	     -1.40376533	    -10.69984524	    -14.66661387	     -6.72300937	     33.45090584	     46.51351392	      0.00000000	      0.00000000	      9.91146884	    -13.16233028	     -9.17792194	     59.91704573	     47.00355044	      0.00000000	      0.00000000
     32.96864286	     -3.76754676	     -4.55715418	     -1.95752364	      0.78262258	      0.91931315	      0.45543514	     23.12701306	      0.61482720	    -12.05706418	     18.76083953	     18.76083953	      1.65954437	     -4.48420797	     -3.81717965	     -2.00921551	     -5.79368722	    -11.83786028	     18.26015748	     18.26015748	     22.21890220	     -3.47523765	     -1.70033893	     -7.38171978	      3.91372830	     -1.41100112	     -9.45459768	    -14.70411434	     -6.57794419	     34.10191380	     46.47927535	      0.00000000	      0.00000000	      8.91800426	    -12.79295384	     -8.97031945	     58.04498632	     46.95469000	      0.00000000	      0.00000000
     32.98200000	     -3.67007309	     -4.73586131	     -1.69542582	      0.78357567	      0.92020229	      0.45744630	     22.61581525	      0.87870746	    -11.98497567	     19.02738234	     19.02738234	      2.21901791	     -4.94652070	     -4.16455895	     -1.63131537	     -6.34622068	    -11.32311471	     20.04047244	     20.04047244	     21.98228794	     -4.28185929	     -1.74641497	     -7.53151504	      4.33239929	     -1.35357158	     -8.11223277	    -14.79715109	     -6.47211340	     34.79098812	     46.44909450	      0.00000000	      0.00000000	      7.87848157	    -12.42121144	     -8.76476646	     56.20410679	     46.90589185	      0.00000000	      0.00000000
     32.99535714	     -3.68184044	     -4.88023264	     -1.41781906	      0.78445377	      0.92108881	      0.45947514	     22.13846045	      1.11850095	    -12.00795194	     19.10947895	     19.10947895	      2.70689061	     -5.32728999	     -4.45062477	     -0.83939060	     -6.92243418	    -10.71150389	     22.32215539	     22.32215539	     21.52595353	     -5.28306847	     -2.02304225	     -7.46321935	      4.72608416	     -1.47050970	     -6.68681963	    -14.84171080	     -6.29280219	     35.63191227	     46.40737958	      0.00000000	      0.00000000	      6.86028997	    -12.09673126	     -8.56128797	     53.77058677	     46.85062242	      0.00000000	      0.00000000
